<svg width="16" height="16" viewBox="0 0 16 16" fill="none" xmlns="http://www.w3.org/2000/svg">
<path d="M8.005 6.66823C8.46413 6.66823 8.89334 6.82793 9.21274 7.1074C9.48223 7.34696 9.63195 7.66636 9.63195 7.98576C9.63195 8.30516 9.48223 8.62456 9.21274 8.86411C8.89334 9.14359 8.47412 9.30329 8.005 9.30329C7.53588 9.30329 7.11665 9.14359 6.79725 8.86411C6.52776 8.62456 6.37804 8.30516 6.37804 7.98576C6.37804 7.66636 6.52776 7.34696 6.79725 7.1074C7.11665 6.82793 7.54586 6.66823 8.005 6.66823ZM8.005 5.3507C6.37805 5.3507 5.05053 6.52849 5.05053 7.98576C5.05053 9.44303 6.36806 10.6208 8.005 10.6208C9.64193 10.6208 10.9595 9.44303 10.9595 7.98576C10.9595 6.52849 9.63195 5.3507 8.005 5.3507Z" fill="#C9A053"/>
<path d="M14.1934 8.89405C14.2433 8.6046 14.2732 8.29518 14.2732 7.99574V7.97578C14.2732 7.66636 14.2433 7.36692 14.1934 7.07746L15.99 6.03941C15.6806 4.96143 15.1217 3.98326 14.3731 3.15482C14.0636 2.81545 13.7243 2.49605 13.355 2.20659L11.4585 3.30453C11.0992 3.09493 10.7199 2.91526 10.3107 2.76555L10.3207 0.689438C9.58205 0.489812 8.81348 0.389999 8.005 0.389999C7.66563 0.389999 7.01684 0.439906 7.01684 0.439906C7.01684 0.439906 6.11853 0.569663 5.68933 0.689438V2.76555C5.2801 2.90528 4.89084 3.09493 4.53151 3.30453L2.63506 2.20659C2.26575 2.49605 1.9264 2.81545 1.61698 3.15482C0.868382 3.98326 0.30942 4.97141 0 6.03941L1.79663 7.07746C1.74673 7.36692 1.71678 7.67634 1.71678 7.97578V7.99574C1.71678 8.30516 1.74673 8.6046 1.79663 8.89405L0.0199668 9.93211C0.329387 11.0101 0.888334 11.9883 1.63693 12.8167C1.94635 13.1561 2.28572 13.4755 2.65503 13.7649L4.55146 12.667C4.91079 12.8766 5.30006 13.0662 5.7093 13.206V15.2821C6.13849 15.3919 6.57768 15.4817 7.02683 15.5316C7.35622 15.5715 7.68559 15.5815 8.01497 15.5815C8.82346 15.5815 9.59202 15.4717 10.3306 15.2821L10.3207 13.206C10.7299 13.0662 11.1092 12.8866 11.4685 12.667L13.3649 13.7649C13.7342 13.4755 14.0736 13.1561 14.383 12.8167C15.1316 11.9883 15.6906 11.0001 16 9.93211L14.1934 8.89405ZM13.1953 12.138L11.3986 11.0999C10.7399 11.6389 9.91142 12.0282 8.98316 12.1879V14.1941C8.66376 14.234 8.33438 14.254 8.005 14.254C7.67561 14.254 7.33624 14.234 7.01684 14.1941V12.1879C6.09856 12.0282 5.26014 11.6389 4.60137 11.0999L2.80474 12.138C2.32564 11.6489 1.93638 11.0999 1.64692 10.511L3.37368 9.51289C3.16407 9.03379 3.0443 8.51477 3.0443 7.97578C3.0443 7.43679 3.16407 6.91776 3.37368 6.43866L1.64692 5.44053C1.93638 4.85163 2.31566 4.30266 2.80474 3.81358L4.60137 4.85163C5.26014 4.31264 6.08858 3.92337 7.01684 3.76367V1.7774C7.34623 1.73747 7.67561 1.71751 8.005 1.71751C8.33438 1.71751 8.66376 1.73747 8.98316 1.7774V3.78364C9.90144 3.94334 10.7399 4.33261 11.3986 4.8716L13.1953 3.83354C13.6744 4.32263 14.0636 4.8716 14.3531 5.46049L12.6263 6.45862C12.8359 6.93772 12.9557 7.45675 12.9557 7.99574C12.9557 8.53473 12.8359 9.05375 12.6263 9.53286L12.7361 9.59274L14.3531 10.521C14.0636 11.0999 13.6843 11.6489 13.1953 12.138Z" fill="#C9A053"/>
</svg>
